# AST/ASF file generated using VICON BodyLanguage
# -----------------------------------------------
:version 1.10
:name VICON
:units
  mass 1.0
  length 0.45
  angle deg
:documentation
   .ast/.asf automatically generated from VICON data using
   VICON BodyBuilder and BodyLanguage model FoxedUp or BRILLIANT.MOD
:root
   order TX TY TZ RX RY RZ
   axis XYZ
   position 0 0 0  
   orientation 0 0 0 
:bonedata
  begin
     id 1 
     name lhipjoint
     direction 0.606768 -0.715223 0.346827 
     length 2.41543 
     axis 0 0 0  XYZ
  end
  begin
     id 2 
     name lfemur
     direction 0.34202 -0.939693 0  
     length 7.2778  
     axis 0 0 20  XYZ
    dof rx ry rz
    limits (-160.0 20.0)
           (-70.0 70.0)
           (-60.0 70.0)
  end
  begin
     id 3 
     name ltibia
     direction 0.34202 -0.939693 0   
     length 7.61811   
     axis 0 0 20   XYZ
    dof rx
    limits (-10.0 170.0)
  end
  begin
     id 4 
     name lfoot
     direction 0.0823924 -0.226371 0.97055   
     length 2.33618   
     axis -90 7.62852e-016 20   XYZ
    dof rx rz
    limits (-45.0 90.0)
           (-70.0 20.0)
  end
  begin
     id 5 
     name ltoes
     direction 1.53554e-011 -4.21934e-011 1   
     length 1.17015   
     axis -90 7.62852e-016 20   XYZ
    dof rx
    limits (-90.0 20.0)
  end
  begin
     id 6 
     name rhipjoint
     direction -0.6077 -0.714582 0.346516   
     length 2.4176  
     axis 0 0 0  XYZ 
  end
  begin
     id 7 
     name rfemur
     direction -0.34202 -0.939693 0   
     length 7.28127   
     axis 0 0 -20   XYZ
    dof rx ry rz
    limits (-160.0 20.0)
           (-70.0 70.0)
           (-70.0 60.0)
  end
  begin
     id 8 
     name rtibia
     direction -0.34202 -0.939693 0   
     length 7.77648   
     axis 0 0 -20   XYZ
    dof rx
    limits (-10.0 170.0)
 end
 begin
     id 9 
     name rfoot
     direction -0.0809463 -0.222398 0.97159   
     length 2.37533  
     axis -90 -7.62852e-016 -20   XYZ
    dof rx rz
    limits (-45.0 90.0)
           (-20.0 70.0)
  end
  begin
     id 10 
     name rtoes
     direction -1.53568e-011 -4.21714e-011 1   
     length 1.18972   
     axis -90 -7.62852e-016 -20   XYZ
    dof rx
    limits (-90.0 20.0)
  end
  begin
     id 11 
     name lowerback
     direction 0.010968 0.991932 -0.126297   
     length 2.21698   
     axis 0 0 0   XYZ
    dof rx ry rz
    limits (-20.0 45.0)
           (-30.0 30.0)
           (-30.0 30.0)
  end
  begin
     id 12 
     name upperback
     direction 0.0167007 0.997503 -0.0686276   
     length 2.22371   
     axis 0 0 0   XYZ
    dof rx ry rz
    limits (-20.0 45.0)
           (-30.0 30.0)
           (-30.0 30.0)
  end
  begin
     id 13 
     name thorax
     direction 0.0111721 0.999885 -0.0102878   
     length 2.25242   
     axis 0 0 0   XYZ
    dof rx ry rz
    limits (-20.0 45.0)
           (-30.0 30.0)
           (-30.0 30.0)
  end
  begin
     id 14 
     name lowerneck
     direction -0.0120265 0.990428 0.137508   
     length 1.57674   
     axis 0 0 0   XYZ
    dof rx ry rz
    limits (-20.0 45.0)
           (-30.0 30.0)
           (-30.0 30.0)
  end
  begin
     id 15 
     name upperneck
     direction 0.0175669 0.998907 0.0433089   
     length 1.5618   
     axis 0 0 0   XYZ
    dof rx ry rz
    limits (-20.0 45.0)
           (-30.0 30.0)
           (-30.0 30.0)
  end
  begin
     id 16
     name head
     direction 0.00754609 0.99997 0.00185367  
     length 1.60579  
     axis 0 0 0   XYZ
    dof rx ry rz
    limits (-20.0 45.0)
           (-30.0 30.0)
           (-30.0 30.0)
  end
  begin
     id 17 
     name lclavicle
     direction 0.885866 0.429166 -0.176231  
     length 3.44967  
     axis 0 0 0   XYZ
    dof ry rz
    limits (-20.0 10.0)
           (0.0 20.0)
  end
  begin
     id 18 
     name lhumerus
     direction 1 -4.48973e-011 -1.90255e-027   
     length 5.20607   
     axis 180 -30 -90   XYZ
    dof rx ry rz
    limits (-60.0 90.0)
           (-90.0 90.0)
           (-90.0 90.0)
  end
  begin
     id 19
     name lradius
     direction 1 -4.48956e-011 9.87925e-027   
     length 3.39961   
     axis 180 -30 -90   XYZ
    dof rx
    limits (-10.0 170.0)
  end
  begin
     id 20
     name lwrist
     direction 1 -4.48985e-011 1.73247e-026   
     length 1.6998   
     axis -9.60847e-015 90 90   XYZ
    dof ry
    limits (-180.0 0.0)
 end
  begin
     id 21 
     name lhand
     direction 1 -4.48798e-011 3.46119e-026   
     length 0.519693   
     axis -2.21073e-014 90 90   XYZ
    dof rx rz
    limits (-90.0 90.0)
           (-45.0 45.0)
  end
  begin
     id 22 
     name lfingers
     direction 1 -4.48938e-011 6.92797e-026   
     length 0.41899   
     axis -4.42155e-014 90 90   XYZ
    dof rx
    limits (0.0 90.0)
  end
  begin
     id 23
     name lthumb
     direction 0.707107 -6.34952e-011 0.707107   
     length 0.601588   
     axis -90 45 6.0103e-014   XYZ
    dof rx rz
    limits (-45.0 45.0)
           (-45.0 45.0)
  end
  begin
     id 24 
     name rclavicle
     direction -0.866736 0.456792 -0.200276   
     length 3.45032  
     axis 0 0 0   XYZ 
    dof ry rz
    limits (-10.0 20.0)
           (-20.0 0.0)
  end
  begin
     id 25 
     name rhumerus
     direction -1 -4.4897e-011 8.65094e-028  
     length 5.32214   
     axis 180 30 90   XYZ
    dof rx ry rz
    limits (-90.0 60.0)
           (-90.0 90.0)
           (-90.0 90.0)
  end
  begin
     id 26 
     name rradius
     direction -1 -4.48987e-011 1.08427e-026   
     length 3.51208   
     axis 180 30 90   XYZ
    dof rx
    limits (-10.0 170.0)
  end
  begin
     id 27 
     name rwrist
     direction -1 -4.48961e-011 1.73222e-026   
     length 1.75604   
     axis -9.60847e-015 -90 -90   XYZ
    dof ry
    limits (-180.0 0.0)
  end
  begin
     id 28
     name rhand
     direction -1 -4.48895e-011 3.46314e-026   
     length 0.586681   
     axis -2.21073e-014 -90 -90   XYZ
    dof rx rz
    limits (-90.0 90.0)
           (-45.0 45.0)
  end
  begin
     id 29
     name rfingers
     direction -1 -4.48968e-011 6.92916e-026   
     length 0.472997   
     axis -4.42155e-014 -90 -90   XYZ
    dof rx
    limits (0.0 90.0)
  end
  begin
     id 30
     name rthumb
     direction -0.707107 -6.34848e-011 0.707107   
     length 0.679133   
     axis -90 -45 -6.0103e-014   XYZ
    dof rx rz
    limits (-45.0 45.0)
           (-45.0 45.0)
  end
:hierarchy
  begin
    root lhipjoint rhipjoint lowerback
    lhipjoint lfemur
    lfemur ltibia
    ltibia lfoot
    lfoot ltoes
    rhipjoint rfemur
    rfemur rtibia
    rtibia rfoot
    rfoot rtoes
    lowerback upperback
    upperback thorax
    thorax lowerneck lclavicle rclavicle
    lowerneck upperneck
    upperneck head
    lclavicle lhumerus
    lhumerus lradius
    lradius lwrist
    lwrist lhand lthumb
    lhand lfingers
    rclavicle rhumerus
    rhumerus rradius
    rradius rwrist
    rwrist rhand rthumb
    rhand rfingers
  end

#!OML:ASF H:\Dans Jumps\Project 1\Capture day 1\Session 1\subject.ASF
:FULLY-SPECIFIED
:DEGREES
41
root -0.118436 16.9836 -14.925 12.3433 -3.1404 -1.81644
lowerback 8.65525 -0.0566535 0.485849
upperback 7.54666 -0.0828882 1.49694
thorax 2.98248 -0.0655143 1.28085
lowerneck -14.6805 0.353139 -1.66094
upperneck 30.5811 0.411847 1.67885
head 12.5668 0.197573 0.988924
rclavicle -1.2424e-014 -1.17283e-014
rhumerus -24.564 -15.2345 -77.5848
rradius 26.4488
rwrist 27.1194
rhand -20.0451 -26.0615
rfingers 7.12502
rthumb 6.29628 -55.9479
lclavicle -1.2424e-014 -1.17283e-014
lhumerus -21.757 5.17793 82.8252
lradius 18.6503
lwrist 6.62644
lhand -27.6441 -5.6853
lfingers 7.12502
lthumb -1.04218 24.2919
rfemur -35.1806 -2.08166 20.2468
rtibia 41.1474
rfoot -17.2631 -0.451538
rtoes 6.82554
lfemur -33.904 9.15539 -19.1414
ltibia 40.3668
lfoot -16.1001 7.15819
ltoes 0.812537
42
root -0.124254 16.9799 -14.9335 12.3468 -3.09586 -1.81902
lowerback 8.70459 -0.0554692 0.496062
upperback 7.5844 -0.0805913 1.49586
thorax 2.99512 -0.0640047 1.27407
lowerneck -14.6892 0.336024 -1.68272
upperneck 30.6338 0.389513 1.69151
head 12.5906 0.186754 0.994939
rclavicle -1.11319e-014 -1.39149e-015
rhumerus -24.6277 -15.4122 -77.515
rradius 26.3097
rwrist 27.3505
rhand -20.0645 -26.0042
rfingers 7.12502
rthumb 6.27757 -55.8912
lclavicle -1.11319e-014 -1.39149e-015
lhumerus -21.8137 5.21525 82.9088
lradius 18.5438
lwrist 6.42578
lhand -27.4956 -5.48117
lfingers 7.12502
lthumb -0.898777 24.4967
rfemur -35.2501 -2.08922 20.275
rtibia 41.2206
rfoot -17.2701 -0.489043
rtoes 6.81964
lfemur -33.9841 9.10098 -19.1111
ltibia 40.4414
lfoot -16.0973 7.1856
ltoes 0.820447
43
root -0.129974 16.9769 -14.9418 12.3505 -3.05143 -1.82208
lowerback 8.74887 -0.0541685 0.507724
upperback 7.61996 -0.0780807 1.49485
thorax 3.00824 -0.0623144 1.26651
lowerneck -14.6597 0.351439 -1.6592
upperneck 30.6527 0.414093 1.66199
head 12.5918 0.196386 0.983257
rclavicle -1.49089e-015 7.95139e-016
rhumerus -24.6946 -15.5714 -77.4508
rradius 26.1802
rwrist 27.5606
rhand -20.0785 -25.9659
rfingers 7.12502
rthumb 6.26399 -55.8533
lclavicle -1.49089e-015 7.95139e-016
lhumerus -21.8767 5.22253 82.9999
lradius 18.4528
lwrist 6.26115
lhand -27.3541 -5.287
lfingers 7.12502
lthumb -0.762125 24.6914
rfemur -35.3104 -2.09838 20.3029
rtibia 41.2798
rfoot -17.2753 -0.520592
rtoes 6.8395
lfemur -34.0563 9.05229 -19.082
ltibia 40.5028
lfoot -16.0925 7.20563
ltoes 0.837468
44
root -0.135588 16.9747 -14.9497 12.355 -3.00325 -1.8242
lowerback 8.78892 -0.0540732 0.520516
upperback 7.65221 -0.0770804 1.49411
thorax 3.02024 -0.0613133 1.25867
lowerneck -14.6189 0.370459 -1.6288
upperneck 30.6658 0.444799 1.623
head 12.5882 0.208293 0.967515
rclavicle -6.26172e-015 1.59028e-015
rhumerus -24.7657 -15.6952 -77.3961
rradius 26.0673
rwrist 27.7168
rhand -20.08 -25.9666
rfingers 7.12502
rthumb 6.26255 -55.8541
lclavicle -6.26172e-015 1.59028e-015
lhumerus -21.9456 5.20184 83.0994
lradius 18.3729
lwrist 6.13195
lhand -27.244 -5.16206
lfingers 7.12502
lthumb -0.655717 24.8167
rfemur -35.3627 -2.11222 20.3296
rtibia 41.3258
rfoot -17.2774 -0.547445
rtoes 6.87372
lfemur -34.1217 9.00653 -19.0551
ltibia 40.5508
lfoot -16.0866 7.21474
ltoes 0.875738
45
root -0.141202 16.973 -14.9573 12.3602 -2.95126 -1.82367
lowerback 8.82639 -0.0544164 0.531951
upperback 7.68082 -0.0766796 1.49309
thorax 3.02985 -0.0606357 1.25133
lowerneck -14.5961 0.374574 -1.61867
upperneck 30.702 0.45324 1.60524
head 12.5982 0.21076 0.960507
rclavicle -4.27387e-015 -1.78906e-015
rhumerus -24.8422 -15.7946 -77.3481
rradius 25.9654
rwrist 27.8376
rhand -20.0716 -25.9852
rfingers 7.12502
rthumb 6.27066 -55.8724
lclavicle -4.27387e-015 -1.78906e-015
lhumerus -22.0257 5.14378 83.2086
lradius 18.3113
lwrist 6.04875
lhand -27.1728 -5.13382
lfingers 7.12502
lthumb -0.586967 24.8451
rfemur -35.4088 -2.12898 20.3536
rtibia 41.361
rfoot -17.2768 -0.574423
rtoes 6.9115
lfemur -34.181 8.96494 -19.0323
ltibia 40.586
lfoot -16.0793 7.21493
ltoes 0.912047
46
root -0.146803 16.972 -14.9645 12.3658 -2.89829 -1.81967
lowerback 8.86479 -0.0550242 0.539153
upperback 7.70351 -0.076739 1.49216
thorax 3.03271 -0.0603416 1.24647
lowerneck -14.5716 0.377949 -1.61502
upperneck 30.7409 0.460441 1.59373
head 12.6088 0.21273 0.956847
rclavicle 1.39149e-015 1.76918e-014
rhumerus -24.9262 -15.8723 -77.3031
rradius 25.8701
rwrist 27.9383
rhand -20.0544 -26.0125
rfingers 7.12502
rthumb 6.28733 -55.8991
lclavicle 1.39149e-015 1.76918e-014
lhumerus -22.1182 5.03771 83.331
lradius 18.2658
lwrist 6.03396
lhand -27.2175 -5.29618
lfingers 7.12502
lthumb -0.630194 24.6826
rfemur -35.449 -2.14733 20.3737
rtibia 41.3878
rfoot -17.2735 -0.599885
rtoes 6.94705
lfemur -34.2334 8.93137 -19.0149
ltibia 40.6089
lfoot -16.0731 7.20331
ltoes 0.958229
47
root -0.152414 16.9713 -14.9716 12.372 -2.84249 -1.81112
lowerback 8.9029 -0.0562248 0.541681
upperback 7.72275 -0.0777765 1.49129
thorax 3.03212 -0.060718 1.24433
lowerneck -14.5627 0.371576 -1.62501
upperneck 30.7937 0.454093 1.5935
head 12.6288 0.2086 0.958134
rclavicle -2.38542e-015 1.80894e-014
rhumerus -25.0162 -15.9275 -77.2616
rradius 25.7865
rwrist 28.0201
rhand -20.0325 -26.0321
rfingers 7.12502
rthumb 6.30841 -55.9182
lclavicle -2.38542e-015 1.80894e-014
lhumerus -22.2205 4.89847 83.4628
lradius 18.2456
lwrist 6.06795
lhand -27.2681 -5.47813
lfingers 7.12502
lthumb -0.679039 24.5005
rfemur -35.4866 -2.16887 20.3891
rtibia 41.4094
rfoot -17.2679 -0.626957
rtoes 6.96783
lfemur -34.2824 8.90215 -19.004
ltibia 40.6214
lfoot -16.0647 7.1854
ltoes 0.9821
48
root -0.157965 16.9711 -14.9784 12.377 -2.78393 -1.79738
lowerback 8.94225 -0.057593 0.540665
upperback 7.73937 -0.0791494 1.4897
thorax 3.02811 -0.0613778 1.24346
lowerneck -14.5768 0.34678 -1.66556
upperneck 30.866 0.420744 1.6229
head 12.662 0.192878 0.972469
rclavicle 4.77083e-015 -3.18055e-015
rhumerus -25.1153 -15.9532 -77.2256
rradius 25.7223
rwrist 28.0799
rhand -20.0079 -26.0533
rfingers 7.12502
rthumb 6.33215 -55.9387
lclavicle 4.77083e-015 -3.18055e-015
lhumerus -22.3317 4.72007 83.6049
lradius 18.258
lwrist 6.15948
lhand -27.3151 -5.63072
lfingers 7.12502
lthumb -0.724433 24.3478
rfemur -35.5203 -2.19547 20.3995
rtibia 41.4275
rfoot -17.2606 -0.654825
rtoes 6.97254
lfemur -34.3266 8.87533 -18.9998
ltibia 40.6254
lfoot -16.0552 7.16279
ltoes 0.98245
49
root -0.163424 16.9711 -14.9849 12.3821 -2.7259 -1.78003
lowerback 8.97899 -0.0574103 0.537163
upperback 7.75484 -0.0786162 1.48707
thorax 3.02427 -0.0611577 1.24277
lowerneck -14.5827 0.334731 -1.6816
upperneck 30.9206 0.406144 1.62929
head 12.686 0.185334 0.976247
rclavicle -2.78299e-015 1.37161e-014
rhumerus -25.2259 -15.95 -77.1956
rradius 25.6852
rwrist 28.1141
rhand -19.9816 -26.0636
rfingers 7.12502
rthumb 6.35762 -55.9482
lclavicle -2.78299e-015 1.37161e-014
lhumerus -22.4502 4.50368 83.7562
lradius 18.3098
lwrist 6.30764
lhand -27.3058 -5.63797
lfingers 7.12502
lthumb -0.71542 24.3406
rfemur -35.5528 -2.22209 20.4051
rtibia 41.4449
rfoot -17.2523 -0.682794
rtoes 6.97835
lfemur -34.3688 8.852 -19.0008
ltibia 40.6236
lfoot -16.0449 7.13751
ltoes 0.965524
50
root -0.168804 16.971 -14.9913 12.3858 -2.66732 -1.76266
lowerback 9.01406 -0.0557814 0.535619
upperback 7.77042 -0.0760809 1.48443
thorax 3.02143 -0.0598503 1.24085
lowerneck -14.6105 0.304579 -1.72381
upperneck 30.9884 0.365293 1.66061
head 12.7206 0.166476 0.990556
rclavicle -9.54166e-015 -2.50469e-014
rhumerus -25.3405 -15.9283 -77.1704
rradius 25.6652
rwrist 28.1335
rhand -19.9613 -26.0619
rfingers 7.12502
rthumb 6.37719 -55.9459
lclavicle -9.54166e-015 -2.50469e-014
lhumerus -22.5722 4.25835 83.9141
lradius 18.3864
lwrist 6.48312
lhand -27.2496 -5.56738
lfingers 7.12502
lthumb -0.661171 24.4113
rfemur -35.5839 -2.2467 20.41
rtibia 41.4625
rfoot -17.2426 -0.713128
rtoes 6.98447
lfemur -34.4093 8.82962 -19.0019
ltibia 40.6188
lfoot -16.0339 7.11063
ltoes 0.941604
51
root -0.174034 16.9707 -14.9974 12.3884 -2.6091 -1.74372
lowerback 9.0434 -0.0523602 0.535887
upperback 7.78716 -0.0711413 1.47993
thorax 3.02291 -0.0572151 1.23582
lowerneck -14.6295 0.284004 -1.74612
upperneck 31.0355 0.33793 1.67528
head 12.7446 0.153802 0.996717
rclavicle -9.93923e-015 5.96354e-016
rhumerus -25.4625 -15.8861 -77.1524
rradius 25.6681
rwrist 28.1318
rhand -19.9468 -26.0506
rfingers 7.12502
rthumb 6.3912 -55.9342
lclavicle -9.93923e-015 5.96354e-016
lhumerus -22.6959 3.97904 84.077
lradius 18.4834
lwrist 6.68639
lhand -27.153 -5.44707
lfingers 7.12502
lthumb -0.567882 24.5319
rfemur -35.614 -2.27165 20.4124
rtibia 41.4823
rfoot -17.2358 -0.743511
rtoes 6.99723
lfemur -34.4481 8.80835 -19.0055
ltibia 40.6137
lfoot -16.0246 7.08441
ltoes 0.909963
